{
    "asset" : {
        "generator" : "Khronos glTF Blender I/O v0.9.36",
        "version" : "2.0"
    },
    "scene" : 0,
    "scenes" : [
        {
            "name" : "Scene",
            "nodes" : [
                22,
                23
            ]
        }
    ],
    "nodes" : [
        {
            "name" : "thumb.3",
            "rotation" : [
                0.03228740394115448,
                0.016168903559446335,
                -0.028341444209218025,
                0.9989458918571472
            ],
            "scale" : [
                1,
                1,
                1.0000001192092896
            ],
            "translation" : [
                -2.9802322387695312e-08,
                0.5271930694580078,
                -5.9371814131736755e-08
            ]
        },
        {
            "children" : [
                0
            ],
            "name" : "thumb.2",
            "rotation" : [
                0.12938302755355835,
                0.051276691257953644,
                -0.08939272910356522,
                0.9862249493598938
            ],
            "scale" : [
                1,
                1.0000001192092896,
                1
            ],
            "translation" : [
                1.4901161193847656e-08,
                0.7167700529098511,
                -1.0849907994270325e-07
            ]
        },
        {
            "children" : [
                1
            ],
            "name" : "thumb.1",
            "rotation" : [
                0.3198706805706024,
                0.08388637006282806,
                -0.08139804005622864,
                0.9402234554290771
            ],
            "scale" : [
                1,
                0.9999999403953552,
                1
            ],
            "translation" : [
                5.017085413783207e-09,
                0.6661021709442139,
                -5.335731856348502e-13
            ]
        },
        {
            "children" : [
                2
            ],
            "name" : "thumb.0",
            "rotation" : [
                0.07565948367118835,
                -0.8503662943840027,
                -0.5130614042282104,
                0.08899896591901779
            ],
            "scale" : [
                0.9999998807907104,
                1,
                0.9999998807907104
            ],
            "translation" : [
                1.862645149230957e-09,
                0.637260377407074,
                -1.1175870895385742e-08
            ]
        },
        {
            "name" : "indexFinger.3",
            "rotation" : [
                -0.014911184087395668,
                -0.006660546641796827,
                -0.08155577629804611,
                0.9965350031852722
            ],
            "scale" : [
                0.9999998807907104,
                0.9999999403953552,
                1
            ],
            "translation" : [
                -1.842445840338769e-08,
                0.5887528657913208,
                1.0430793651039494e-07
            ]
        },
        {
            "children" : [
                4
            ],
            "name" : "indexFinger.2",
            "rotation" : [
                0.03589135780930519,
                0.004073210060596466,
                -0.11612842977046967,
                0.9925771951675415
            ],
            "scale" : [
                0.9999998807907104,
                0.9999999403953552,
                0.9999999403953552
            ],
            "translation" : [
                -3.4924596548080444e-08,
                0.5832796692848206,
                1.501757651567459e-08
            ]
        },
        {
            "children" : [
                5
            ],
            "name" : "indexFinger.1",
            "rotation" : [
                0.08489778637886047,
                0.0038779943715780973,
                -0.09401780366897583,
                0.9919365048408508
            ],
            "scale" : [
                1.0000001192092896,
                1.0000001192092896,
                1
            ],
            "translation" : [
                -9.313225746154785e-09,
                1.8998669385910034,
                8.250935934484005e-08
            ]
        },
        {
            "children" : [
                6
            ],
            "name" : "indexFinger.0",
            "rotation" : [
                0.033003438264131546,
                -0.9940781593322754,
                -0.006215406581759453,
                0.10334798693656921
            ],
            "scale" : [
                1,
                1.0000001192092896,
                1
            ],
            "translation" : [
                1.862645149230957e-09,
                0.637260377407074,
                -1.1175870895385742e-08
            ]
        },
        {
            "name" : "middleFinger.3",
            "rotation" : [
                0.017003865912556648,
                0.007662292569875717,
                -0.1863873451948166,
                0.9822993278503418
            ],
            "scale" : [
                1,
                1.0000001192092896,
                1
            ],
            "translation" : [
                5.820766091346741e-08,
                0.6142876148223877,
                2.3809612059721985e-08
            ]
        },
        {
            "children" : [
                8
            ],
            "name" : "middleFinger.2",
            "rotation" : [
                -0.008871675468981266,
                -0.0010512789012864232,
                -0.1175910010933876,
                0.9930219650268555
            ],
            "scale" : [
                1,
                1,
                0.9999999403953552
            ],
            "translation" : [
                -1.8522769096307456e-08,
                0.5485252737998962,
                9.138633849659072e-09
            ]
        },
        {
            "children" : [
                9
            ],
            "name" : "middleFinger.1",
            "rotation" : [
                -0.013163686729967594,
                0.0002649524831213057,
                -0.020203640684485435,
                0.9997093081474304
            ],
            "scale" : [
                1,
                1.0000001192092896,
                1.0000001192092896
            ],
            "translation" : [
                -7.275957614183426e-10,
                1.8983463048934937,
                5.251337142908596e-10
            ]
        },
        {
            "children" : [
                10
            ],
            "name" : "middleFinger.0",
            "rotation" : [
                0.06808657944202423,
                -0.9860223531723022,
                0.12351416051387787,
                0.08870422095060349
            ],
            "scale" : [
                1.0000001192092896,
                1,
                1
            ],
            "translation" : [
                1.862645149230957e-09,
                0.637260377407074,
                -1.1175870895385742e-08
            ]
        },
        {
            "name" : "ringFinger.3",
            "rotation" : [
                -0.017838457599282265,
                0.010867192409932613,
                -0.04876049980521202,
                0.9985920786857605
            ],
            "scale" : [
                1,
                0.9999999403953552,
                0.9999999403953552
            ],
            "translation" : [
                -1.3131648302078247e-07,
                0.617739737033844,
                -4.768283901057657e-08
            ]
        },
        {
            "children" : [
                12
            ],
            "name" : "ringFinger.2",
            "rotation" : [
                0.0030715458560734987,
                -0.0033236772287636995,
                -0.07842502743005753,
                0.9969098567962646
            ],
            "scale" : [
                1,
                0.9999999403953552,
                0.9999998807907104
            ],
            "translation" : [
                1.3204194715399353e-07,
                0.5615822076797485,
                5.8151687909457905e-08
            ]
        },
        {
            "children" : [
                13
            ],
            "name" : "ringFinger.1",
            "rotation" : [
                -0.11011885106563568,
                0.9793336391448975,
                0.1691354215145111,
                0.013146844692528248
            ],
            "scale" : [
                0.9999999403953552,
                0.9999993443489075,
                0.9999998211860657
            ],
            "translation" : [
                6.2282197177410126e-09,
                1.94327974319458,
                6.684058462269604e-08
            ]
        },
        {
            "children" : [
                14
            ],
            "name" : "ringFinger.0",
            "rotation" : [
                -0.2686794698238373,
                0.07560769468545914,
                0.09528384357690811,
                0.9555186033248901
            ],
            "scale" : [
                0.9999998807907104,
                0.9999998807907104,
                1
            ],
            "translation" : [
                1.862645149230957e-09,
                0.637260377407074,
                -1.1175870895385742e-08
            ]
        },
        {
            "name" : "pinky.3",
            "rotation" : [
                -0.12558913230895996,
                0.9913331866264343,
                0.03798242285847664,
                -0.006576789543032646
            ],
            "scale" : [
                1,
                1.000000238418579,
                1
            ],
            "translation" : [
                5.9138983488082886e-08,
                0.5043017864227295,
                6.705522537231445e-08
            ]
        },
        {
            "children" : [
                16
            ],
            "name" : "pinky.2",
            "rotation" : [
                0.11803500354290009,
                -0.007950562052428722,
                0.07426858693361282,
                0.9901963472366333
            ],
            "scale" : [
                1,
                0.9999998807907104,
                0.9999999403953552
            ],
            "translation" : [
                6.612390279769897e-08,
                0.5610992908477783,
                3.620516508817673e-08
            ]
        },
        {
            "children" : [
                17
            ],
            "name" : "pinky.1",
            "rotation" : [
                0.16010259091854095,
                -0.034294493496418,
                0.13002151250839233,
                0.9778984785079956
            ],
            "translation" : [
                8.032657206058502e-09,
                1.9972243309020996,
                5.8772457123268396e-08
            ]
        },
        {
            "children" : [
                18
            ],
            "name" : "pinky.0",
            "rotation" : [
                -0.36833110451698303,
                0.06637652963399887,
                0.10993523895740509,
                0.9207826256752014
            ],
            "scale" : [
                1.0000001192092896,
                0.9999999403953552,
                1
            ],
            "translation" : [
                1.862645149230957e-09,
                0.637260377407074,
                -1.1175870895385742e-08
            ]
        },
        {
            "children" : [
                3,
                7,
                11,
                15,
                19
            ],
            "name" : "palmBase.0",
            "rotation" : [
                0.035262659192085266,
                0.6311067342758179,
                -0.16193939745426178,
                0.7577839493751526
            ],
            "scale" : [
                1,
                0.9999999403953552,
                1
            ]
        },
        {
            "mesh" : 0,
            "name" : "12683_hand_v1_FINAL",
            "skin" : 0
        },
        {
            "children" : [
                21,
                20
            ],
            "name" : "Armature"
        },
        {
            "name" : "Camera",
            "rotation" : [
                0.483536034822464,
                0.33687159419059753,
                -0.20870360732078552,
                0.7804827094078064
            ],
            "translation" : [
                7.481131553649902,
                5.34366512298584,
                6.5076398849487305
            ]
        }
    ],
    "materials" : [
        {
            "doubleSided" : true,
            "name" : "Default OBJ",
            "pbrMetallicRoughness" : {
                "baseColorFactor" : [
                    0.800000011920929,
                    0.800000011920929,
                    0.800000011920929,
                    1
                ],
                "metallicFactor" : 0,
                "roughnessFactor" : 0.5
            }
        }
    ],
    "meshes" : [
        {
            "name" : "12683_hand_v1_FINAL",
            "primitives" : [
                {
                    "attributes" : {
                        "POSITION" : 0,
                        "NORMAL" : 1,
                        "TANGENT" : 2,
                        "TEXCOORD_0" : 3,
                        "JOINTS_0" : 4,
                        "WEIGHTS_0" : 5
                    },
                    "indices" : 6,
                    "material" : 0
                }
            ]
        }
    ],
    "skins" : [
        {
            "inverseBindMatrices" : 7,
            "joints" : [
                20,
                3,
                2,
                1,
                0,
                7,
                6,
                5,
                4,
                11,
                10,
                9,
                8,
                15,
                14,
                13,
                12,
                19,
                18,
                17,
                16
            ],
            "name" : "Armature"
        }
    ],
    "accessors" : [
        {
            "bufferView" : 0,
            "componentType" : 5126,
            "count" : 157,
            "max" : [
                1.8816825151443481,
                4.48846435546875,
                1.0019762516021729
            ],
            "min" : [
                -0.9565709233283997,
                0.01292574405670166,
                -0.697982668876648
            ],
            "type" : "VEC3"
        },
        {
            "bufferView" : 1,
            "componentType" : 5126,
            "count" : 157,
            "type" : "VEC3"
        },
        {
            "bufferView" : 2,
            "componentType" : 5126,
            "count" : 157,
            "type" : "VEC4"
        },
        {
            "bufferView" : 3,
            "componentType" : 5126,
            "count" : 157,
            "type" : "VEC2"
        },
        {
            "bufferView" : 4,
            "componentType" : 5123,
            "count" : 157,
            "type" : "VEC4"
        },
        {
            "bufferView" : 5,
            "componentType" : 5126,
            "count" : 157,
            "type" : "VEC4"
        },
        {
            "bufferView" : 6,
            "componentType" : 5123,
            "count" : 594,
            "type" : "SCALAR"
        },
        {
            "bufferView" : 7,
            "componentType" : 5126,
            "count" : 21,
            "type" : "MAT4"
        }
    ],
    "bufferViews" : [
        {
            "buffer" : 0,
            "byteLength" : 1884,
            "byteOffset" : 0
        },
        {
            "buffer" : 0,
            "byteLength" : 1884,
            "byteOffset" : 1884
        },
        {
            "buffer" : 0,
            "byteLength" : 2512,
            "byteOffset" : 3768
        },
        {
            "buffer" : 0,
            "byteLength" : 1256,
            "byteOffset" : 6280
        },
        {
            "buffer" : 0,
            "byteLength" : 1256,
            "byteOffset" : 7536
        },
        {
            "buffer" : 0,
            "byteLength" : 2512,
            "byteOffset" : 8792
        },
        {
            "buffer" : 0,
            "byteLength" : 1188,
            "byteOffset" : 11304
        },
        {
            "buffer" : 0,
            "byteLength" : 1344,
            "byteOffset" : 12492
        }
    ],
    "buffers" : [
        {
            "byteLength" : 13836,
            "uri" : "data:application/octet-stream;base64,"
        }
    ]
}
