{
    "asset" : {
        "generator" : "Khronos glTF Blender I/O v0.9.36",
        "version" : "2.0"
    },
    "scene" : 0,
    "scenes" : [
        {
            "name" : "Scene",
            "nodes" : [
                21,
                22,
                23
            ]
        }
    ],
    "nodes" : [
        {
            "name" : "Bone.003",
            "rotation" : [
                0.11571027338504791,
                0.05342087149620056,
                -0.13210909068584442,
                0.9830079078674316
            ],
            "translation" : [
                -5.960464477539063e-08,
                1.8211959600448608,
                2.086162567138672e-07
            ]
        },
        {
            "children" : [
                0
            ],
            "name" : "Bone.002",
            "rotation" : [
                0.33710044622421265,
                0.07606569677591324,
                -0.07218389213085175,
                0.9356104135513306
            ],
            "scale" : [
                0.9999999403953552,
                0.9999999403953552,
                1
            ],
            "translation" : [
                -4.0197072337377904e-08,
                1.5207290649414062,
                2.9802400547396246e-08
            ]
        },
        {
            "children" : [
                1
            ],
            "name" : "Bone.001",
            "rotation" : [
                -0.12767788767814636,
                0.8550091981887817,
                0.502647876739502,
                -0.0016604246338829398
            ],
            "scale" : [
                1.0000001192092896,
                0.9999998807907104,
                1
            ],
            "translation" : [
                1.1175870895385742e-08,
                1.4548826217651367,
                -4.8498048244027814e-08
            ]
        },
        {
            "name" : "Bone.007",
            "rotation" : [
                -0.014911125414073467,
                -0.006660460960119963,
                -0.08155576139688492,
                0.9965350031852722
            ],
            "scale" : [
                1,
                1.0000001192092896,
                1
            ],
            "translation" : [
                2.9564438364104717e-07,
                1.3441393375396729,
                2.980233659855003e-08
            ]
        },
        {
            "children" : [
                3
            ],
            "name" : "Bone.006",
            "rotation" : [
                -0.0010711713694036007,
                -0.00024285302788484842,
                -0.11596702039241791,
                0.9932524561882019
            ],
            "scale" : [
                0.9999999403953552,
                0.9999998807907104,
                1
            ],
            "translation" : [
                1.1734664440155029e-07,
                1.32209312915802,
                9.148203616859973e-08
            ]
        },
        {
            "children" : [
                4
            ],
            "name" : "Bone.005",
            "rotation" : [
                0.13245268166065216,
                0.0014563803561031818,
                -0.09401661902666092,
                0.9867193102836609
            ],
            "scale" : [
                1,
                0.9999998807907104,
                0.9999998807907104
            ],
            "translation" : [
                -2.60770320892334e-08,
                4.368009567260742,
                -2.017578282220711e-08
            ]
        },
        {
            "children" : [
                5
            ],
            "name" : "Bone.004",
            "rotation" : [
                -0.03375658392906189,
                0.999335765838623,
                0.01364367175847292,
                -0.001614168519154191
            ],
            "scale" : [
                1,
                1.0000001192092896,
                1
            ],
            "translation" : [
                1.1175870895385742e-08,
                1.4548826217651367,
                -4.8498048244027814e-08
            ]
        },
        {
            "name" : "Bone.011",
            "rotation" : [
                0.017003865912556648,
                0.007662306539714336,
                -0.18638736009597778,
                0.9822993278503418
            ],
            "scale" : [
                0.9999999403953552,
                1,
                0.9999998807907104
            ],
            "translation" : [
                4.936009645462036e-08,
                1.4024372100830078,
                4.9855337636017794e-08
            ]
        },
        {
            "children" : [
                7
            ],
            "name" : "Bone.010",
            "rotation" : [
                -0.008871722035109997,
                -0.001051347702741623,
                -0.11759092658758163,
                0.9930219650268555
            ],
            "translation" : [
                1.4192210073815659e-08,
                1.252298355102539,
                6.263860541366739e-09
            ]
        },
        {
            "children" : [
                8
            ],
            "name" : "Bone.009",
            "rotation" : [
                -0.013163690455257893,
                0.0002649349917192012,
                -0.02020365186035633,
                0.9997093081474304
            ],
            "scale" : [
                1.0000001192092896,
                1.0000001192092896,
                1.0000001192092896
            ],
            "translation" : [
                1.8510036170482635e-08,
                4.333975315093994,
                -3.827520345112134e-08
            ]
        },
        {
            "children" : [
                9
            ],
            "name" : "Bone.008",
            "rotation" : [
                -0.05511307716369629,
                0.9899254441261292,
                -0.1298236846923828,
                0.01249083410948515
            ],
            "scale" : [
                1,
                0.9999997615814209,
                1
            ],
            "translation" : [
                1.1175870895385742e-08,
                1.4548826217651367,
                -4.8498048244027814e-08
            ]
        },
        {
            "name" : "Bone.015",
            "rotation" : [
                0.02023531123995781,
                0.008992231450974941,
                -0.0496029369533062,
                0.9985235333442688
            ],
            "scale" : [
                0.9999999403953552,
                0.9999999403953552,
                0.9999998807907104
            ],
            "translation" : [
                2.0954757928848267e-07,
                1.4103169441223145,
                -4.117541152481863e-08
            ]
        },
        {
            "children" : [
                11
            ],
            "name" : "Bone.014",
            "rotation" : [
                -0.01620486006140709,
                -0.004839093424379826,
                -0.07819411158561707,
                0.9967947006225586
            ],
            "scale" : [
                1,
                1,
                0.9999999403953552
            ],
            "translation" : [
                -4.203913306355389e-08,
                1.2793314456939697,
                5.960426818774067e-08
            ]
        },
        {
            "children" : [
                12
            ],
            "name" : "Bone.013",
            "rotation" : [
                -0.11027190089225769,
                0.9847192168235779,
                0.13411204516887665,
                0.013496281579136848
            ],
            "scale" : [
                1,
                0.9999995231628418,
                1
            ],
            "translation" : [
                2.0023435354232788e-08,
                4.399847030639648,
                6.598639856747468e-09
            ]
        },
        {
            "children" : [
                13
            ],
            "name" : "Bone.012",
            "rotation" : [
                -0.2613300681114197,
                -0.021313538774847984,
                0.0676521509885788,
                0.9626399874687195
            ],
            "translation" : [
                1.1175870895385742e-08,
                1.4548826217651367,
                -4.8498048244027814e-08
            ]
        },
        {
            "name" : "Bone.019",
            "rotation" : [
                -0.12665103375911713,
                0.991793692111969,
                0.01490214467048645,
                0.009094661101698875
            ],
            "scale" : [
                1,
                0.9999999403953552,
                0.9999999403953552
            ],
            "translation" : [
                -4.6566128730773926e-08,
                1.1470776796340942,
                6.526875040435698e-09
            ]
        },
        {
            "children" : [
                15
            ],
            "name" : "Bone.018",
            "rotation" : [
                0.023072965443134308,
                -0.008367338217794895,
                0.07314048707485199,
                0.9970195889472961
            ],
            "scale" : [
                1.0000001192092896,
                1,
                1
            ],
            "translation" : [
                2.2351741790771484e-08,
                1.26865816116333,
                3.8398795254579454e-09
            ]
        },
        {
            "children" : [
                16
            ],
            "name" : "Bone.017",
            "rotation" : [
                0.1897740513086319,
                -0.026575898751616478,
                0.13258397579193115,
                0.9724717140197754
            ],
            "scale" : [
                1,
                1.0000001192092896,
                1
            ],
            "translation" : [
                4.423782229423523e-09,
                4.493061065673828,
                -4.18241370425676e-07
            ]
        },
        {
            "children" : [
                17
            ],
            "name" : "Bone.016",
            "rotation" : [
                -0.36403173208236694,
                -0.026970623061060905,
                0.0721595510840416,
                0.9281952977180481
            ],
            "scale" : [
                1.0000001192092896,
                1,
                0.9999999403953552
            ],
            "translation" : [
                1.1175870895385742e-08,
                1.4548826217651367,
                -4.8498048244027814e-08
            ]
        },
        {
            "children" : [
                2,
                6,
                10,
                14,
                18
            ],
            "name" : "Bone",
            "rotation" : [
                0.1478642076253891,
                0.011225157417356968,
                -0.07485991716384888,
                0.9861065745353699
            ]
        },
        {
            "mesh" : 0,
            "name" : "12683_hand_v1_FINAL",
            "rotation" : [
                0,
                0,
                -0.7071069478988647,
                0.7071065902709961
            ],
            "scale" : [
                0.14578208327293396,
                0.14578208327293396,
                0.14578208327293396
            ],
            "skin" : 0,
            "translation" : [
                -0.8094101548194885,
                4.156693935394287,
                -0.14060892164707184
            ]
        },
        {
            "children" : [
                20,
                19
            ],
            "name" : "Armature",
            "rotation" : [
                -0.7071067690849304,
                0,
                0,
                0.7071067690849304
            ],
            "scale" : [
                0.4380149841308594,
                0.4380149841308594,
                0.4380149841308594
            ],
            "translation" : [
                0,
                0,
                0.04767322540283203
            ]
        },
        {
            "name" : "Lamp",
            "rotation" : [
                0.16907575726509094,
                0.7558803558349609,
                -0.27217137813568115,
                0.570947527885437
            ],
            "translation" : [
                4.076245307922363,
                5.903861999511719,
                -1.0054539442062378
            ]
        },
        {
            "name" : "Camera",
            "rotation" : [
                0.483536034822464,
                0.33687159419059753,
                -0.20870360732078552,
                0.7804827094078064
            ],
            "translation" : [
                7.481131553649902,
                5.34366512298584,
                6.5076398849487305
            ]
        }
    ],
    "materials" : [
        {
            "doubleSided" : true,
            "name" : "Default OBJ",
            "pbrMetallicRoughness" : {
                "baseColorFactor" : [
                    0.800000011920929,
                    0.800000011920929,
                    0.800000011920929,
                    1
                ],
                "metallicFactor" : 0,
                "roughnessFactor" : 0.5
            }
        }
    ],
    "meshes" : [
        {
            "name" : "12683_hand_v1_FINAL",
            "primitives" : [
                {
                    "attributes" : {
                        "POSITION" : 0,
                        "NORMAL" : 1,
                        "TEXCOORD_0" : 2,
                        "JOINTS_0" : 3,
                        "WEIGHTS_0" : 4
                    },
                    "indices" : 5,
                    "material" : 0
                }
            ]
        }
    ],
    "skins" : [
        {
            "inverseBindMatrices" : 6,
            "joints" : [
                19,
                2,
                1,
                0,
                6,
                5,
                4,
                3,
                10,
                9,
                8,
                7,
                14,
                13,
                12,
                11,
                18,
                17,
                16,
                15
            ],
            "name" : "Armature"
        }
    ],
    "accessors" : [
        {
            "bufferView" : 0,
            "componentType" : 5126,
            "count" : 157,
            "max" : [
                27.567033767700195,
                16.89861488342285,
                29.468185424804688
            ],
            "min" : [
                -42.522342681884766,
                -9.723652839660645,
                -14.9804048538208
            ],
            "type" : "VEC3"
        },
        {
            "bufferView" : 1,
            "componentType" : 5126,
            "count" : 157,
            "type" : "VEC3"
        },
        {
            "bufferView" : 2,
            "componentType" : 5126,
            "count" : 157,
            "type" : "VEC2"
        },
        {
            "bufferView" : 3,
            "componentType" : 5123,
            "count" : 157,
            "type" : "VEC4"
        },
        {
            "bufferView" : 4,
            "componentType" : 5126,
            "count" : 157,
            "type" : "VEC4"
        },
        {
            "bufferView" : 5,
            "componentType" : 5123,
            "count" : 594,
            "type" : "SCALAR"
        },
        {
            "bufferView" : 6,
            "componentType" : 5126,
            "count" : 20,
            "type" : "MAT4"
        }
    ],
    "bufferViews" : [
        {
            "buffer" : 0,
            "byteLength" : 1884,
            "byteOffset" : 0
        },
        {
            "buffer" : 0,
            "byteLength" : 1884,
            "byteOffset" : 1884
        },
        {
            "buffer" : 0,
            "byteLength" : 1256,
            "byteOffset" : 3768
        },
        {
            "buffer" : 0,
            "byteLength" : 1256,
            "byteOffset" : 5024
        },
        {
            "buffer" : 0,
            "byteLength" : 2512,
            "byteOffset" : 6280
        },
        {
            "buffer" : 0,
            "byteLength" : 1188,
            "byteOffset" : 8792
        },
        {
            "buffer" : 0,
            "byteLength" : 1280,
            "byteOffset" : 9980
        }
    ],
    "buffers" : [
        {
            "byteLength" : 11260,
            "uri" : "data:application/octet-stream;base64,"
        }
    ]
}
