{
    "asset" : {
        "generator" : "Khronos glTF Blender I/O v0.9.36",
        "version" : "2.0"
    },
    "scene" : 0,
    "scenes" : [
        {
            "name" : "Scene",
            "nodes" : [
                22,
                23
            ]
        }
    ],
    "nodes" : [
        {
            "name" : "thumb.3",
            "rotation" : [
                0.03228722885251045,
                0.016168877482414246,
                -0.028341514989733696,
                0.9989458918571472
            ],
            "scale" : [
                1,
                1,
                1.0000001192092896
            ],
            "translation" : [
                -2.384185791015625e-07,
                1.2035961151123047,
                -2.668239176273346e-07
            ]
        },
        {
            "children" : [
                0
            ],
            "name" : "thumb.2",
            "rotation" : [
                0.1293831765651703,
                0.051276691257953644,
                -0.08939267694950104,
                0.9862249493598938
            ],
            "scale" : [
                0.9999999403953552,
                0.9999999403953552,
                1
            ],
            "translation" : [
                1.1920928955078125e-07,
                1.6364052295684814,
                6.984919309616089e-08
            ]
        },
        {
            "children" : [
                1
            ],
            "name" : "thumb.1",
            "rotation" : [
                0.3198707103729248,
                0.08388642221689224,
                -0.08139804750680923,
                0.9402234554290771
            ],
            "scale" : [
                1,
                1,
                0.9999999403953552
            ],
            "translation" : [
                -4.0197072337377904e-08,
                1.5207290649414062,
                2.9802400547396246e-08
            ]
        },
        {
            "children" : [
                2
            ],
            "name" : "thumb.0",
            "rotation" : [
                -0.12767788767814636,
                0.8550091981887817,
                0.502647876739502,
                -0.0016604246338829398
            ],
            "scale" : [
                1.0000001192092896,
                0.9999998807907104,
                1
            ],
            "translation" : [
                1.1175870895385742e-08,
                1.4548826217651367,
                -4.8498048244027814e-08
            ]
        },
        {
            "name" : "indexFinger.3",
            "rotation" : [
                -0.01491111796349287,
                -0.006660450249910355,
                -0.08155573159456253,
                0.9965350031852722
            ],
            "scale" : [
                1,
                1.0000001192092896,
                1
            ],
            "translation" : [
                -5.011935755305785e-08,
                1.3441396951675415,
                -1.9984014443252818e-15
            ]
        },
        {
            "children" : [
                4
            ],
            "name" : "indexFinger.2",
            "rotation" : [
                0.03589129075407982,
                0.004073147661983967,
                -0.11612837761640549,
                0.9925771951675415
            ],
            "scale" : [
                0.9999999403953552,
                0.9999998807907104,
                1
            ],
            "translation" : [
                -1.1455267667770386e-07,
                1.3316445350646973,
                4.423782229423523e-08
            ]
        },
        {
            "children" : [
                5
            ],
            "name" : "indexFinger.1",
            "rotation" : [
                0.08489774167537689,
                0.0038780972827225924,
                -0.09401775896549225,
                0.9919365048408508
            ],
            "scale" : [
                0.9999999403953552,
                1,
                0.9999999403953552
            ],
            "translation" : [
                -5.960464477539063e-08,
                4.337446689605713,
                4.807952791452408e-08
            ]
        },
        {
            "children" : [
                6
            ],
            "name" : "indexFinger.0",
            "rotation" : [
                -0.03346571326255798,
                0.9994351267814636,
                0.002811180194839835,
                -0.001252375659532845
            ],
            "scale" : [
                1,
                0.9999995231628418,
                1
            ],
            "translation" : [
                1.1175870895385742e-08,
                1.4548826217651367,
                -4.8498048244027814e-08
            ]
        },
        {
            "name" : "middleFinger.3",
            "rotation" : [
                0.017003865912556648,
                0.007662306539714336,
                -0.18638736009597778,
                0.9822993278503418
            ],
            "scale" : [
                0.9999999403953552,
                1,
                0.9999998807907104
            ],
            "translation" : [
                4.936009645462036e-08,
                1.4024372100830078,
                4.9855337636017794e-08
            ]
        },
        {
            "children" : [
                8
            ],
            "name" : "middleFinger.2",
            "rotation" : [
                -0.008871722035109997,
                -0.001051347702741623,
                -0.11759092658758163,
                0.9930219650268555
            ],
            "translation" : [
                1.4192210073815659e-08,
                1.252298355102539,
                6.263860541366739e-09
            ]
        },
        {
            "children" : [
                9
            ],
            "name" : "middleFinger.1",
            "rotation" : [
                -0.013163690455257893,
                0.0002649349917192012,
                -0.02020365186035633,
                0.9997093081474304
            ],
            "scale" : [
                1.0000001192092896,
                1.0000001192092896,
                1.0000001192092896
            ],
            "translation" : [
                1.8510036170482635e-08,
                4.333975315093994,
                -3.827520345112134e-08
            ]
        },
        {
            "children" : [
                10
            ],
            "name" : "middleFinger.0",
            "rotation" : [
                -0.05511307716369629,
                0.9899254441261292,
                -0.1298236846923828,
                0.01249083410948515
            ],
            "scale" : [
                1,
                0.9999997615814209,
                1
            ],
            "translation" : [
                1.1175870895385742e-08,
                1.4548826217651367,
                -4.8498048244027814e-08
            ]
        },
        {
            "name" : "ringFinger.3",
            "rotation" : [
                -0.017838474363088608,
                0.010867192409932613,
                -0.04876067116856575,
                0.9985920786857605
            ],
            "scale" : [
                1.0000001192092896,
                0.9999998807907104,
                0.9999999403953552
            ],
            "translation" : [
                2.523884177207947e-07,
                1.410315990447998,
                3.50017437256156e-08
            ]
        },
        {
            "children" : [
                12
            ],
            "name" : "ringFinger.2",
            "rotation" : [
                0.0030715875327587128,
                -0.0033236665185540915,
                -0.07842496037483215,
                0.9969098567962646
            ],
            "scale" : [
                1,
                1.0000001192092896,
                0.9999998807907104
            ],
            "translation" : [
                2.707696822312755e-08,
                1.2821069955825806,
                -5.9120299766846074e-08
            ]
        },
        {
            "children" : [
                13
            ],
            "name" : "ringFinger.1",
            "rotation" : [
                -0.11011828482151031,
                0.9793334007263184,
                0.16913683712482452,
                0.013144577853381634
            ],
            "scale" : [
                1,
                0.9999999403953552,
                1
            ],
            "translation" : [
                1.7462298274040222e-08,
                4.436560153961182,
                -4.115281626582146e-08
            ]
        },
        {
            "children" : [
                14
            ],
            "name" : "ringFinger.0",
            "rotation" : [
                -0.27700796723365784,
                -0.022403545677661896,
                0.06733705848455429,
                0.9582434296607971
            ],
            "scale" : [
                1.0000001192092896,
                0.9999999403953552,
                1.0000001192092896
            ],
            "translation" : [
                1.1175870895385742e-08,
                1.4548826217651367,
                -4.8498048244027814e-08
            ]
        },
        {
            "name" : "pinky.3",
            "rotation" : [
                -0.12558914721012115,
                0.9913332462310791,
                0.037982527166604996,
                -0.006576672662049532
            ],
            "scale" : [
                1,
                0.9999998211860657,
                1
            ],
            "translation" : [
                3.3527612686157227e-07,
                1.1513346433639526,
                -1.862645149230957e-08
            ]
        },
        {
            "children" : [
                16
            ],
            "name" : "pinky.2",
            "rotation" : [
                0.11803492158651352,
                -0.007950477302074432,
                0.0742686539888382,
                0.9901963472366333
            ],
            "scale" : [
                1,
                0.9999999403953552,
                0.9999998807907104
            ],
            "translation" : [
                2.086162567138672e-07,
                1.2810059785842896,
                1.771841198205948e-07
            ]
        },
        {
            "children" : [
                17
            ],
            "name" : "pinky.1",
            "rotation" : [
                0.16010262072086334,
                -0.034294575452804565,
                0.13002149760723114,
                0.9778984785079956
            ],
            "scale" : [
                1,
                0.9999998807907104,
                1
            ],
            "translation" : [
                -1.1641532182693481e-09,
                4.559717178344727,
                -2.6928864826913923e-07
            ]
        },
        {
            "children" : [
                18
            ],
            "name" : "pinky.0",
            "rotation" : [
                -0.37763503193855286,
                -0.028037725016474724,
                0.07173141092061996,
                0.9227461814880371
            ],
            "scale" : [
                1,
                1,
                0.9999999403953552
            ],
            "translation" : [
                1.1175870895385742e-08,
                1.4548826217651367,
                -4.8498048244027814e-08
            ]
        },
        {
            "children" : [
                3,
                7,
                11,
                15,
                19
            ],
            "name" : "palmBase.0",
            "rotation" : [
                0.1478642076253891,
                0.011225157417356968,
                -0.07485991716384888,
                0.9861065745353699
            ]
        },
        {
            "mesh" : 0,
            "name" : "12683_hand_v1_FINAL",
            "rotation" : [
                0,
                0,
                -0.7071069478988647,
                0.7071065902709961
            ],
            "scale" : [
                0.14578208327293396,
                0.14578208327293396,
                0.14578208327293396
            ],
            "skin" : 0,
            "translation" : [
                -0.8094101548194885,
                4.156693935394287,
                -0.14060892164707184
            ]
        },
        {
            "children" : [
                21,
                20
            ],
            "name" : "Armature",
            "rotation" : [
                -0.7071067690849304,
                0,
                0,
                0.7071067690849304
            ],
            "scale" : [
                0.4380149841308594,
                0.4380149841308594,
                0.4380149841308594
            ],
            "translation" : [
                0,
                0,
                0.04767322540283203
            ]
        },
        {
            "name" : "Camera",
            "rotation" : [
                0.483536034822464,
                0.33687159419059753,
                -0.20870360732078552,
                0.7804827094078064
            ],
            "translation" : [
                7.481131553649902,
                5.34366512298584,
                6.5076398849487305
            ]
        }
    ],
    "materials" : [
        {
            "doubleSided" : true,
            "name" : "Default OBJ",
            "pbrMetallicRoughness" : {
                "baseColorFactor" : [
                    0.800000011920929,
                    0.800000011920929,
                    0.800000011920929,
                    1
                ],
                "metallicFactor" : 0,
                "roughnessFactor" : 0.5
            }
        }
    ],
    "meshes" : [
        {
            "name" : "12683_hand_v1_FINAL",
            "primitives" : [
                {
                    "attributes" : {
                        "POSITION" : 0,
                        "NORMAL" : 1,
                        "TEXCOORD_0" : 2,
                        "JOINTS_0" : 3,
                        "WEIGHTS_0" : 4
                    },
                    "indices" : 5,
                    "material" : 0
                }
            ]
        }
    ],
    "skins" : [
        {
            "inverseBindMatrices" : 6,
            "joints" : [
                20,
                3,
                2,
                1,
                0,
                7,
                6,
                5,
                4,
                11,
                10,
                9,
                8,
                15,
                14,
                13,
                12,
                19,
                18,
                17,
                16
            ],
            "name" : "Armature"
        }
    ],
    "accessors" : [
        {
            "bufferView" : 0,
            "componentType" : 5126,
            "count" : 157,
            "max" : [
                27.567033767700195,
                16.89861488342285,
                29.468185424804688
            ],
            "min" : [
                -42.522342681884766,
                -9.723652839660645,
                -14.9804048538208
            ],
            "type" : "VEC3"
        },
        {
            "bufferView" : 1,
            "componentType" : 5126,
            "count" : 157,
            "type" : "VEC3"
        },
        {
            "bufferView" : 2,
            "componentType" : 5126,
            "count" : 157,
            "type" : "VEC2"
        },
        {
            "bufferView" : 3,
            "componentType" : 5123,
            "count" : 157,
            "type" : "VEC4"
        },
        {
            "bufferView" : 4,
            "componentType" : 5126,
            "count" : 157,
            "type" : "VEC4"
        },
        {
            "bufferView" : 5,
            "componentType" : 5123,
            "count" : 594,
            "type" : "SCALAR"
        },
        {
            "bufferView" : 6,
            "componentType" : 5126,
            "count" : 21,
            "type" : "MAT4"
        }
    ],
    "bufferViews" : [
        {
            "buffer" : 0,
            "byteLength" : 1884,
            "byteOffset" : 0
        },
        {
            "buffer" : 0,
            "byteLength" : 1884,
            "byteOffset" : 1884
        },
        {
            "buffer" : 0,
            "byteLength" : 1256,
            "byteOffset" : 3768
        },
        {
            "buffer" : 0,
            "byteLength" : 1256,
            "byteOffset" : 5024
        },
        {
            "buffer" : 0,
            "byteLength" : 2512,
            "byteOffset" : 6280
        },
        {
            "buffer" : 0,
            "byteLength" : 1188,
            "byteOffset" : 8792
        },
        {
            "buffer" : 0,
            "byteLength" : 1344,
            "byteOffset" : 9980
        }
    ],
    "buffers" : [
        {
            "byteLength" : 11324,
            "uri" : "data:application/octet-stream;base64,"
        }
    ]
}
